<svg width="126" height="17" viewBox="0 0 126 17" fill="none" xmlns="http://www.w3.org/2000/svg">
<path d="M8.11133 12.3154L11.3662 0.359375H15.5879L10.3135 16H7.58496L8.11133 12.3154ZM5.15723 0.359375L8.41211 12.3154L8.95996 16H6.19922L0.957031 0.359375H5.15723ZM29.8213 7.86816V8.50195C29.8213 9.69792 29.653 10.7721 29.3164 11.7246C28.987 12.6699 28.5179 13.4792 27.9092 14.1523C27.3005 14.8184 26.5807 15.3304 25.75 15.6885C24.9193 16.0394 24.0026 16.2148 23 16.2148C21.9902 16.2148 21.0664 16.0394 20.2285 15.6885C19.3978 15.3304 18.6745 14.8184 18.0586 14.1523C17.4499 13.4792 16.9772 12.6699 16.6406 11.7246C16.3112 10.7721 16.1465 9.69792 16.1465 8.50195V7.86816C16.1465 6.6722 16.3112 5.59798 16.6406 4.64551C16.9772 3.69303 17.4463 2.88379 18.0479 2.21777C18.6566 1.5446 19.3763 1.03255 20.207 0.681641C21.0449 0.323568 21.9688 0.144531 22.9785 0.144531C23.9811 0.144531 24.8978 0.323568 25.7285 0.681641C26.5664 1.03255 27.2897 1.5446 27.8984 2.21777C28.5072 2.88379 28.9798 3.69303 29.3164 4.64551C29.653 5.59798 29.8213 6.6722 29.8213 7.86816ZM25.9971 8.50195V7.84668C25.9971 7.07324 25.929 6.3929 25.793 5.80566C25.6641 5.21126 25.4707 4.71354 25.2129 4.3125C24.9551 3.91146 24.6364 3.61068 24.2568 3.41016C23.8844 3.20247 23.4583 3.09863 22.9785 3.09863C22.4772 3.09863 22.0404 3.20247 21.668 3.41016C21.2956 3.61068 20.984 3.91146 20.7334 4.3125C20.4827 4.71354 20.293 5.21126 20.1641 5.80566C20.0423 6.3929 19.9814 7.07324 19.9814 7.84668V8.50195C19.9814 9.26823 20.0423 9.94857 20.1641 10.543C20.293 11.1302 20.4827 11.6279 20.7334 12.0361C20.9912 12.4443 21.3063 12.7523 21.6787 12.96C22.0583 13.1676 22.4987 13.2715 23 13.2715C23.4798 13.2715 23.9059 13.1676 24.2783 12.96C24.6507 12.7523 24.9622 12.4443 25.2129 12.0361C25.4707 11.6279 25.6641 11.1302 25.793 10.543C25.929 9.94857 25.9971 9.26823 25.9971 8.50195ZM39.833 11.8428C39.833 11.5993 39.7972 11.3809 39.7256 11.1875C39.654 10.987 39.5215 10.8008 39.3281 10.6289C39.1348 10.457 38.8555 10.2852 38.4902 10.1133C38.1322 9.93424 37.6595 9.74805 37.0723 9.55469C36.3848 9.32552 35.7223 9.06771 35.085 8.78125C34.4476 8.48763 33.8783 8.14746 33.377 7.76074C32.8757 7.36686 32.4782 6.90853 32.1846 6.38574C31.891 5.85579 31.7441 5.23991 31.7441 4.53809C31.7441 3.86491 31.8945 3.25977 32.1953 2.72266C32.4961 2.17839 32.915 1.71647 33.4521 1.33691C33.9964 0.950195 34.6338 0.656576 35.3643 0.456055C36.0947 0.248372 36.8932 0.144531 37.7598 0.144531C38.9056 0.144531 39.9154 0.345052 40.7891 0.746094C41.6699 1.13997 42.3574 1.70215 42.8516 2.43262C43.3529 3.15592 43.6035 4.01172 43.6035 5H39.8545C39.8545 4.60612 39.7721 4.25879 39.6074 3.95801C39.4499 3.65723 39.21 3.4209 38.8877 3.24902C38.5654 3.07715 38.1608 2.99121 37.6738 2.99121C37.2012 2.99121 36.8037 3.06283 36.4814 3.20605C36.1592 3.34928 35.9157 3.54264 35.751 3.78613C35.5863 4.02246 35.5039 4.28385 35.5039 4.57031C35.5039 4.80664 35.5684 5.02148 35.6973 5.21484C35.8333 5.40104 36.0231 5.5765 36.2666 5.74121C36.5173 5.90592 36.818 6.06348 37.1689 6.21387C37.527 6.36426 37.9281 6.51107 38.3721 6.6543C39.2028 6.91927 39.9404 7.21647 40.585 7.5459C41.2367 7.86816 41.7845 8.23698 42.2285 8.65234C42.6797 9.06055 43.0199 9.52604 43.249 10.0488C43.4854 10.5716 43.6035 11.1624 43.6035 11.8213C43.6035 12.5231 43.4674 13.1462 43.1953 13.6904C42.9232 14.2347 42.5329 14.6966 42.0244 15.0762C41.516 15.4486 40.9072 15.7314 40.1982 15.9248C39.4893 16.1182 38.6979 16.2148 37.8242 16.2148C37.0221 16.2148 36.2308 16.1146 35.4502 15.9141C34.6768 15.7064 33.9749 15.3913 33.3447 14.9688C32.7145 14.5391 32.2096 13.9912 31.8301 13.3252C31.4577 12.652 31.2715 11.8535 31.2715 10.9297H35.0527C35.0527 11.388 35.1136 11.7747 35.2354 12.0898C35.3571 12.4049 35.5361 12.6592 35.7725 12.8525C36.0088 13.0387 36.2988 13.1748 36.6426 13.2607C36.9863 13.3395 37.3802 13.3789 37.8242 13.3789C38.304 13.3789 38.6908 13.3109 38.9844 13.1748C39.278 13.0316 39.4928 12.8454 39.6289 12.6162C39.765 12.3799 39.833 12.1221 39.833 11.8428ZM53.1211 0.359375V16H49.3506V0.359375H53.1211ZM57.8262 0.359375V3.27051H44.7529V0.359375H57.8262ZM72.3604 7.86816V8.50195C72.3604 9.69792 72.1921 10.7721 71.8555 11.7246C71.526 12.6699 71.057 13.4792 70.4482 14.1523C69.8395 14.8184 69.1198 15.3304 68.2891 15.6885C67.4583 16.0394 66.5417 16.2148 65.5391 16.2148C64.5293 16.2148 63.6055 16.0394 62.7676 15.6885C61.9368 15.3304 61.2135 14.8184 60.5977 14.1523C59.9889 13.4792 59.5163 12.6699 59.1797 11.7246C58.8503 10.7721 58.6855 9.69792 58.6855 8.50195V7.86816C58.6855 6.6722 58.8503 5.59798 59.1797 4.64551C59.5163 3.69303 59.9854 2.88379 60.5869 2.21777C61.1956 1.5446 61.9154 1.03255 62.7461 0.681641C63.584 0.323568 64.5078 0.144531 65.5176 0.144531C66.5202 0.144531 67.4368 0.323568 68.2676 0.681641C69.1055 1.03255 69.8288 1.5446 70.4375 2.21777C71.0462 2.88379 71.5189 3.69303 71.8555 4.64551C72.1921 5.59798 72.3604 6.6722 72.3604 7.86816ZM68.5361 8.50195V7.84668C68.5361 7.07324 68.4681 6.3929 68.332 5.80566C68.2031 5.21126 68.0098 4.71354 67.752 4.3125C67.4941 3.91146 67.1755 3.61068 66.7959 3.41016C66.4235 3.20247 65.9974 3.09863 65.5176 3.09863C65.0163 3.09863 64.5794 3.20247 64.207 3.41016C63.8346 3.61068 63.5231 3.91146 63.2725 4.3125C63.0218 4.71354 62.832 5.21126 62.7031 5.80566C62.5814 6.3929 62.5205 7.07324 62.5205 7.84668V8.50195C62.5205 9.26823 62.5814 9.94857 62.7031 10.543C62.832 11.1302 63.0218 11.6279 63.2725 12.0361C63.5303 12.4443 63.8454 12.7523 64.2178 12.96C64.5973 13.1676 65.0378 13.2715 65.5391 13.2715C66.0189 13.2715 66.445 13.1676 66.8174 12.96C67.1898 12.7523 67.5013 12.4443 67.752 12.0361C68.0098 11.6279 68.2031 11.1302 68.332 10.543C68.4681 9.94857 68.5361 9.26823 68.5361 8.50195ZM78.0859 0.359375V16H74.3154V0.359375H78.0859ZM87.4209 0.359375L81.3623 8.28711L77.8174 12.165L77.1299 8.70605L79.3965 5.26855L82.7695 0.359375H87.4209ZM82.9629 16L78.9238 8.95312L81.8564 6.79395L87.4209 16H82.9629ZM97.873 0.359375V16H94.1133V0.359375H97.873ZM105.607 16H102.138L102.159 13.0996H105.607C106.324 13.0996 106.929 12.9277 107.423 12.584C107.924 12.2402 108.304 11.7282 108.562 11.0479C108.826 10.3604 108.959 9.5153 108.959 8.5127V7.83594C108.959 7.08398 108.884 6.42513 108.733 5.85938C108.59 5.28646 108.375 4.81022 108.089 4.43066C107.802 4.04395 107.444 3.75391 107.015 3.56055C106.592 3.36719 106.105 3.27051 105.554 3.27051H102.073V0.359375H105.554C106.614 0.359375 107.584 0.541992 108.465 0.907227C109.353 1.2653 110.119 1.78092 110.764 2.4541C111.415 3.12012 111.917 3.91146 112.268 4.82812C112.626 5.73763 112.805 6.7474 112.805 7.85742V8.5127C112.805 9.61556 112.626 10.6253 112.268 11.542C111.917 12.4587 111.419 13.25 110.774 13.916C110.13 14.582 109.367 15.0977 108.486 15.4629C107.613 15.821 106.653 16 105.607 16ZM104.297 0.359375V16H100.526V0.359375H104.297ZM125.534 13.0996V16H117.198V13.0996H125.534ZM118.541 0.359375V16H114.771V0.359375H118.541ZM124.46 6.56836V9.37207H117.198V6.56836H124.46ZM125.566 0.359375V3.27051H117.198V0.359375H125.566Z" fill="#89E94F"/>
</svg>
